# xmcd
# Copyright (C) 1995-1998 Ti Kan
#
# Track frame offsets:
#       150
#       14185
#       24480
#       34380
#       48802
#       60542
#       71620
#       80110
#       91747
#       102695
#       114490
#       125642
#       135757
#       145270
#       155180
#       166777
#       178522
#       195472
#       207255
#       224015
#       234742
#
# Disc length: 3302 seconds
#
# Revision: 0
# Processed by: cddbd v1.5.2PL0 Copyright (c) Steve Scherf et al.
# Submitted via: CD-Import v1.0
#
DISCID=340ce415
DTITLE=Barry and The Remains - The Remains
DYEAR=1966
DGENRE=
TTITLE0=Why Do I Cry
TTITLE1=When I Want To Know
TTITLE2=Ain't That Her
TTITLE3=All Good Things
TTITLE4=I'm Talking 'bout You
TTITLE5=My Babe
TTITLE6=Say You're Sorry
TTITLE7=Baby I Believe In You
TTITLE8=You Got A Hard Time Comin'
TTITLE9=I Can't Get Away From You
TTITLE10=Me Right Now
TTITLE11=Time Of Day
TTITLE12=Once Before
TTITLE13=But I Ain't Got You
TTITLE14=Diddy Wah Diddy
TTITLE15=Mercy, Mercy, Mercy
TTITLE16=Lonely Weekend
TTITLE17=Heart
TTITLE18=Thank You
TTITLE19=Say You're Sorry
TTITLE20=Don't Look Back
EXTD=
EXTT0=
EXTT1=
EXTT2=
EXTT3=
EXTT4=
EXTT5=
EXTT6=
EXTT7=
EXTT8=
EXTT9=
EXTT10=
EXTT11=
EXTT12=
EXTT13=
EXTT14=
EXTT15=
EXTT16=
EXTT17=
EXTT18=
EXTT19=
EXTT20=
PLAYORDER=
